# Blender v2.80 (sub 75) OBJ File: 'Building.blend'
# www.blender.org
mtllib Building.mtl
o Cube_Cube.001
v -5.000000 -2.920000 5.000000
v -5.000000 19.740000 5.000000
v -5.000000 -2.920000 -5.000000
v -5.000000 19.740000 -5.000000
v 5.000000 -2.920000 5.000000
v 5.000000 19.740000 5.000000
v 5.000000 -2.920000 -5.000000
v 5.000000 19.740000 -5.000000
v -5.000000 25.589287 0.000000
v 0.000000 25.589287 -5.000000
v 5.000000 25.589287 0.000000
v 0.000000 25.589287 5.000000
v 0.000000 24.673172 0.000000
vt 0.625000 0.125000
vt 0.625000 0.250000
vt 0.375000 0.250000
vt 0.625000 0.375000
vt 0.625000 0.500000
vt 0.375000 0.500000
vt 0.625000 0.625000
vt 0.625000 0.750000
vt 0.375000 0.750000
vt 0.625000 0.875000
vt 0.625000 1.000000
vt 0.375000 1.000000
vt 0.125000 0.750000
vt 0.125000 0.500000
vt 0.875000 0.625000
vt 0.750000 0.750000
vt 0.750000 0.625000
vt 0.750000 0.500000
vt 0.875000 0.500000
vt 0.375000 0.000000
vt 0.625000 0.000000
vt 0.875000 0.750000
vn -1.0000 0.0000 0.0000
vn -0.0000 0.0000 -1.0000
vn 1.0000 0.0000 0.0000
vn 0.0000 0.0000 1.0000
vn 0.0000 -1.0000 0.0000
vn 0.1774 0.9680 -0.1774
vn -0.1182 0.6452 0.7548
vn 0.6052 0.5173 -0.6052
vn -0.7548 0.6452 0.1182
vn -0.6052 0.5173 0.6052
vn 0.7548 0.6452 -0.1182
vn -0.1774 0.9680 0.1774
vn 0.1182 0.6452 -0.7548
usemtl None
s off
f 9/1/1 4/2/1 3/3/1
f 10/4/2 8/5/2 7/6/2
f 11/7/3 6/8/3 5/9/3
f 12/10/4 2/11/4 1/12/4
f 7/6/5 1/13/5 3/14/5
f 9/15/6 12/16/6 13/17/6
f 13/17/7 6/8/7 11/7/7
f 10/18/8 11/7/8 8/5/8
f 4/19/9 13/17/9 10/18/9
f 3/3/1 1/20/1 9/1/1
f 1/20/1 2/21/1 9/1/1
f 7/6/2 3/3/2 10/4/2
f 3/3/2 4/2/2 10/4/2
f 5/9/3 7/6/3 11/7/3
f 7/6/3 8/5/3 11/7/3
f 1/12/4 5/9/4 12/10/4
f 5/9/4 6/8/4 12/10/4
f 7/6/5 5/9/5 1/13/5
f 9/15/10 2/22/10 12/16/10
f 13/17/11 12/16/11 6/8/11
f 10/18/12 13/17/12 11/7/12
f 4/19/13 9/15/13 13/17/13
