# Blender v2.80 (sub 75) OBJ File: 'boat.blend'
# www.blender.org
mtllib boat.mtl
o Circle
v 0.000280 0.000000 -2.144487
v -0.103051 0.000000 -2.148786
v -0.130873 0.000000 -1.644609
v -0.152977 0.000000 -0.890056
v -0.165587 0.000000 0.000000
v -0.152977 0.000000 0.890056
v -0.094745 0.000000 1.644609
v -0.040405 0.000000 1.894083
v 0.000067 0.000000 1.994557
v 0.040539 0.000000 1.894083
v 0.094879 0.000000 1.644610
v 0.153111 0.000000 0.890057
v 0.165721 0.000000 -0.000000
v 0.153111 0.000000 -0.890057
v 0.131007 0.000000 -1.644610
v 0.103185 0.000000 -2.148787
v 0.001286 0.494868 -1.804841
v -0.570718 0.494868 -1.808589
v -0.697996 0.494868 -1.445280
v -0.822067 0.494868 -0.778132
v -0.892072 0.494868 0.000211
v -0.824167 0.494868 0.755208
v -0.630790 0.494868 1.395263
v -0.340570 0.494868 1.824132
v -0.000000 0.494868 1.987905
v 0.340570 0.494868 1.824133
v 0.630790 0.494868 1.395263
v 0.824167 0.494868 0.755208
v 0.892072 0.494868 0.000211
v 0.822067 0.494868 -0.778133
v 0.697996 0.494868 -1.445280
v 0.570718 0.494868 -1.808588
v -0.622493 0.494868 -2.148786
v 0.001285 0.494868 -2.144487
v -0.790446 0.494868 -1.644609
v -0.923880 0.494868 -0.890056
v -1.000000 0.494868 0.000000
v -0.923880 0.494868 0.890056
v -0.707107 0.494868 1.644609
v -0.382683 0.494868 2.148786
v -0.000000 0.494868 2.342315
v 0.382683 0.494868 2.148786
v 0.707107 0.494868 1.644610
v 0.923880 0.494868 0.890057
v 1.000000 0.494868 -0.000000
v 0.923879 0.494868 -0.890057
v 0.790445 0.494868 -1.644610
v 0.622493 0.494868 -2.148787
v -0.233305 0.188455 -1.715918
v 0.000573 0.188455 -1.712361
v -0.285346 0.188455 -1.371180
v -0.336076 0.188455 -0.738136
v -0.364699 0.188455 0.000420
v -0.336934 0.188455 0.716822
v -0.257867 0.188455 1.324159
v -0.139203 0.188455 1.731105
v 0.000047 0.188455 1.886506
v 0.139298 0.188455 1.731106
v 0.257962 0.188455 1.324160
v 0.337029 0.188455 0.716822
v 0.364794 0.188455 0.000420
v 0.336171 0.188455 -0.738136
v 0.285441 0.188455 -1.371180
v 0.233400 0.188455 -1.715917
vt 0.000000 0.000000
vt 0.000000 0.000000
vt 0.000000 0.000000
vt 0.000000 0.000000
vt 0.000000 0.000000
vt 0.000000 0.000000
vt 0.000000 0.000000
vt 0.000000 0.000000
vt 0.000000 0.000000
vt 0.000000 0.000000
vt 0.000000 0.000000
vt 0.000000 0.000000
vt 0.000000 0.000000
vt 0.000000 0.000000
vt 0.000000 0.000000
vt 0.000000 0.000000
vt 0.000000 0.000000
vt 0.000000 0.000000
vt 0.000000 0.000000
vt 0.000000 0.000000
vt 0.000000 0.000000
vt 0.000000 0.000000
vt 0.000000 0.000000
vt 0.000000 0.000000
vt 0.000000 0.000000
vt 0.000000 0.000000
vt 0.000000 0.000000
vt 0.000000 0.000000
vt 0.000000 0.000000
vt 0.000000 0.000000
vt 0.000000 0.000000
vt 0.000000 0.000000
vt 0.000000 0.000000
vt 0.000000 0.000000
vt 0.000000 0.000000
vt 0.000000 0.000000
vt 0.000000 0.000000
vt 0.000000 0.000000
vt 0.000000 0.000000
vt 0.000000 0.000000
vt 0.000000 0.000000
vt 0.000000 0.000000
vt 0.000000 0.000000
vt 0.000000 0.000000
vt 0.000000 0.000000
vt 0.000000 0.000000
vt 0.000000 0.000000
vt 0.000000 0.000000
vt 0.000000 0.000000
vt 0.000000 0.000000
vt 0.000000 0.000000
vt 0.000000 0.000000
vt 0.000000 0.000000
vt 0.000000 0.000000
vt 0.000000 0.000000
vt 0.000000 0.000000
vt 0.000000 0.000000
vt 0.000000 0.000000
vt 0.000000 0.000000
vt 0.000000 0.000000
vt 0.000000 0.000000
vt 0.000000 0.000000
vt 0.000000 0.000000
vt 0.000000 0.000000
vn -0.3354 -0.9415 -0.0321
vn 0.0000 -0.7166 -0.6975
vn 0.3355 -0.9415 -0.0321
vn -0.1601 0.9734 0.1636
vn -0.3247 0.9445 0.0503
vn -0.2816 0.9572 0.0658
vn 0.3001 -0.9534 0.0294
vn 0.8941 0.3069 0.3260
vn 0.3723 -0.9235 0.0920
vn -0.2754 -0.9613 0.0000
vn -0.9568 0.2711 -0.1053
vn -0.2919 -0.9563 -0.0164
vn 0.2754 -0.9613 0.0000
vn 0.9525 0.2648 0.1504
vn -0.9525 0.2648 0.1504
vn -0.9677 0.2520 0.0000
vn 0.9568 0.2711 -0.1053
vn 0.9677 0.2521 0.0000
vn -0.3001 -0.9535 0.0294
vn -0.8942 0.3069 0.3260
vn 0.2920 -0.9563 -0.0164
vn 0.9344 0.2984 -0.1944
vn -0.3723 -0.9235 0.0920
vn -0.6622 0.3540 0.6605
vn 0.7031 0.3173 -0.6362
vn -0.4478 -0.8714 0.2005
vn 0.0000 0.3443 0.9388
vn -0.2637 -0.7142 -0.6483
vn 0.0000 0.7109 -0.7033
vn 0.2637 -0.7141 -0.6484
vn 0.4478 -0.8713 0.2005
vn 0.0001 -0.7681 0.6403
vn -0.7032 0.3173 -0.6362
vn 0.6622 0.3540 0.6605
vn -0.9344 0.2983 -0.1944
vn 0.1601 0.9734 0.1635
vn 0.2816 0.9573 0.0658
vn 0.2638 0.9640 0.0321
vn 0.2462 0.9692 0.0000
vn 0.2532 0.9664 -0.0439
vn 0.2732 0.9556 -0.1100
vn 0.2616 0.8763 -0.4045
vn 0.0000 0.8041 -0.5945
vn -0.2616 0.8763 -0.4045
vn -0.2733 0.9556 -0.1100
vn -0.2533 0.9664 -0.0440
vn -0.2462 0.9692 0.0000
vn -0.2639 0.9640 0.0321
vn 0.0000 0.8005 0.5993
vn -0.2357 0.8055 0.5437
vn 0.0000 0.8055 0.5925
vn 0.3446 0.7489 -0.5660
vn 0.2357 0.8055 0.5437
vn -0.3446 0.7489 -0.5660
vn -0.0001 0.6893 -0.7245
vn 0.3247 0.9445 0.0503
vn -0.3587 0.9267 -0.1122
vn 0.2862 0.9578 0.0255
vn -0.2932 0.9552 -0.0395
vn 0.2730 0.9620 0.0001
vn -0.2730 0.9620 0.0001
vn 0.2932 0.9552 -0.0395
vn -0.2863 0.9578 0.0255
vn 0.3586 0.9267 -0.1122
usemtl Material.001
s 1
f 3/1/1 1/2/2 15/3/3
f 32/4/4 63/5/5 31/6/6
f 12/7/7 43/8/8 11/9/9
f 5/10/10 36/11/11 4/12/12
f 13/13/13 44/14/14 12/7/7
f 5/10/10 38/15/15 37/16/16
f 13/13/13 46/17/17 45/18/18
f 6/19/19 39/20/20 38/15/15
f 14/21/21 47/22/22 46/17/17
f 7/23/23 40/24/24 39/20/20
f 15/3/3 48/25/25 47/22/22
f 8/26/26 41/27/27 40/24/24
f 2/28/28 34/29/29 1/2/2
f 16/30/30 34/29/29 48/25/25
f 10/31/31 41/27/27 9/32/32
f 3/1/1 33/33/33 2/28/28
f 11/9/9 42/34/34 10/31/31
f 4/12/12 35/35/35 3/1/1
f 18/36/36 34/29/29 33/33/33
f 18/36/36 35/35/35 19/37/37
f 19/37/37 36/11/11 20/38/38
f 20/38/38 37/16/16 21/39/39
f 22/40/40 37/16/16 38/15/15
f 23/41/41 38/15/15 39/20/20
f 24/42/42 39/20/20 40/24/24
f 25/43/43 40/24/24 41/27/27
f 25/43/43 42/34/34 26/44/44
f 26/44/44 43/8/8 27/45/45
f 27/45/45 44/14/14 28/46/46
f 28/46/46 45/18/18 29/47/47
f 30/48/48 45/18/18 46/17/17
f 31/6/6 46/17/17 47/22/22
f 32/4/4 47/22/22 48/25/25
f 32/4/4 34/29/29 17/49/49
f 63/5/5 64/50/50 50/51/51
f 25/43/43 56/52/52 24/42/42
f 17/49/49 49/53/53 50/51/51
f 17/49/49 64/50/50 32/4/4
f 25/43/43 58/54/54 57/55/55
f 18/36/36 51/56/56 49/53/53
f 26/44/44 59/57/57 58/54/54
f 19/37/37 52/58/58 51/56/56
f 27/45/45 60/59/59 59/57/57
f 20/38/38 53/60/60 52/58/58
f 28/46/46 61/61/61 60/59/59
f 22/40/40 53/60/60 21/39/39
f 30/48/48 61/61/61 29/47/47
f 23/41/41 54/62/62 22/40/40
f 31/6/6 62/63/63 30/48/48
f 24/42/42 55/64/64 23/41/41
f 26/44/44 56/52/52 24/42/42
f 25/43/43 24/42/42 26/44/44
f 3/1/1 2/28/28 1/2/2
f 1/2/2 16/30/30 15/3/3
f 15/3/3 14/21/21 3/1/1
f 14/21/21 13/13/13 4/12/12
f 3/1/1 14/21/21 4/12/12
f 13/13/13 12/7/7 5/10/10
f 12/7/7 11/9/9 6/19/19
f 5/10/10 12/7/7 6/19/19
f 11/9/9 10/31/31 8/26/26
f 10/31/31 9/32/32 8/26/26
f 8/26/26 7/23/23 11/9/9
f 7/23/23 6/19/19 11/9/9
f 5/10/10 4/12/12 13/13/13
f 32/4/4 64/50/50 63/5/5
f 12/7/7 44/14/14 43/8/8
f 5/10/10 37/16/16 36/11/11
f 13/13/13 45/18/18 44/14/14
f 5/10/10 6/19/19 38/15/15
f 13/13/13 14/21/21 46/17/17
f 6/19/19 7/23/23 39/20/20
f 14/21/21 15/3/3 47/22/22
f 7/23/23 8/26/26 40/24/24
f 15/3/3 16/30/30 48/25/25
f 8/26/26 9/32/32 41/27/27
f 2/28/28 33/33/33 34/29/29
f 16/30/30 1/2/2 34/29/29
f 10/31/31 42/34/34 41/27/27
f 3/1/1 35/35/35 33/33/33
f 11/9/9 43/8/8 42/34/34
f 4/12/12 36/11/11 35/35/35
f 18/36/36 17/49/49 34/29/29
f 18/36/36 33/33/33 35/35/35
f 19/37/37 35/35/35 36/11/11
f 20/38/38 36/11/11 37/16/16
f 22/40/40 21/39/39 37/16/16
f 23/41/41 22/40/40 38/15/15
f 24/42/42 23/41/41 39/20/20
f 25/43/43 24/42/42 40/24/24
f 25/43/43 41/27/27 42/34/34
f 26/44/44 42/34/34 43/8/8
f 27/45/45 43/8/8 44/14/14
f 28/46/46 44/14/14 45/18/18
f 30/48/48 29/47/47 45/18/18
f 31/6/6 30/48/48 46/17/17
f 32/4/4 31/6/6 47/22/22
f 32/4/4 48/25/25 34/29/29
f 50/51/51 49/53/53 51/56/56
f 51/56/56 52/58/58 50/51/51
f 52/58/58 53/60/60 61/61/61
f 50/51/51 52/58/58 62/63/63
f 53/60/60 54/62/62 61/61/61
f 54/62/62 55/64/64 60/59/59
f 61/61/61 54/62/62 60/59/59
f 55/64/64 56/52/52 59/57/57
f 56/52/52 57/55/55 58/54/54
f 59/57/57 56/52/52 58/54/54
f 59/57/57 60/59/59 55/64/64
f 61/61/61 62/63/63 52/58/58
f 62/63/63 63/5/5 50/51/51
f 25/43/43 57/55/55 56/52/52
f 17/49/49 18/36/36 49/53/53
f 17/49/49 50/51/51 64/50/50
f 25/43/43 26/44/44 58/54/54
f 18/36/36 19/37/37 51/56/56
f 26/44/44 27/45/45 59/57/57
f 19/37/37 20/38/38 52/58/58
f 27/45/45 28/46/46 60/59/59
f 20/38/38 21/39/39 53/60/60
f 28/46/46 29/47/47 61/61/61
f 22/40/40 54/62/62 53/60/60
f 30/48/48 62/63/63 61/61/61
f 23/41/41 55/64/64 54/62/62
f 31/6/6 63/5/5 62/63/63
f 24/42/42 56/52/52 55/64/64
f 26/44/44 58/54/54 56/52/52
o Cube_Cube.001
v -0.794455 0.387644 0.103391
v -0.794455 0.432397 0.103391
v -0.794455 0.387644 -0.103391
v -0.794455 0.432397 -0.103391
v 0.794455 0.387644 0.103391
v 0.794455 0.432397 0.103391
v 0.794455 0.387644 -0.103391
v 0.794455 0.432397 -0.103391
vt 0.625000 0.000000
vt 0.375000 0.250000
vt 0.375000 0.000000
vt 0.625000 0.250000
vt 0.375000 0.500000
vt 0.625000 0.500000
vt 0.375000 0.750000
vt 0.625000 0.750000
vt 0.375000 1.000000
vt 0.125000 0.750000
vt 0.125000 0.500000
vt 0.875000 0.500000
vt 0.625000 1.000000
vt 0.875000 0.750000
vn -0.5773 0.5773 0.5773
vn -0.5773 -0.5773 -0.5773
vn -0.5773 -0.5773 0.5773
vn -0.5773 0.5773 -0.5773
vn 0.5773 -0.5773 -0.5773
vn 0.5773 0.5773 -0.5773
vn 0.5773 -0.5773 0.5773
vn 0.5773 0.5773 0.5773
usemtl Material.001
s 1
f 66/65/65 67/66/66 65/67/67
f 68/68/68 71/69/69 67/66/66
f 72/70/70 69/71/71 71/69/69
f 70/72/72 65/73/67 69/71/71
f 71/69/69 65/74/67 67/75/66
f 68/76/68 70/72/72 72/70/70
f 66/65/65 68/68/68 67/66/66
f 68/68/68 72/70/70 71/69/69
f 72/70/70 70/72/72 69/71/71
f 70/72/72 66/77/65 65/73/67
f 71/69/69 69/71/71 65/74/67
f 68/76/68 66/78/65 70/72/72
o Cube.001_Cube.002
v -0.724041 0.387644 -0.868925
v -0.724041 0.432397 -0.868925
v -0.724041 0.387644 -1.075706
v -0.724041 0.432397 -1.075706
v 0.724041 0.387644 -0.868925
v 0.724041 0.432397 -0.868925
v 0.724041 0.387644 -1.075706
v 0.724041 0.432397 -1.075706
vt 0.625000 0.000000
vt 0.375000 0.250000
vt 0.375000 0.000000
vt 0.625000 0.250000
vt 0.375000 0.500000
vt 0.625000 0.500000
vt 0.375000 0.750000
vt 0.625000 0.750000
vt 0.375000 1.000000
vt 0.125000 0.750000
vt 0.125000 0.500000
vt 0.875000 0.500000
vt 0.625000 1.000000
vt 0.875000 0.750000
vn -0.5773 0.5773 0.5773
vn -0.5773 -0.5773 -0.5773
vn -0.5773 -0.5773 0.5773
vn -0.5773 0.5773 -0.5773
vn 0.5773 -0.5773 -0.5773
vn 0.5773 0.5773 -0.5773
vn 0.5773 -0.5773 0.5773
vn 0.5773 0.5773 0.5773
usemtl Material.001
s 1
f 74/79/73 75/80/74 73/81/75
f 76/82/76 79/83/77 75/80/74
f 80/84/78 77/85/79 79/83/77
f 78/86/80 73/87/75 77/85/79
f 79/83/77 73/88/75 75/89/74
f 76/90/76 78/86/80 80/84/78
f 74/79/73 76/82/76 75/80/74
f 76/82/76 80/84/78 79/83/77
f 80/84/78 78/86/80 77/85/79
f 78/86/80 74/91/73 73/87/75
f 79/83/77 77/85/79 73/88/75
f 76/90/76 74/92/73 78/86/80
o Cube.002_Cube.003
v -0.703501 0.387644 1.005341
v -0.703501 0.432397 1.005341
v -0.703501 0.387644 0.798560
v -0.703501 0.432397 0.798560
v 0.703501 0.387644 1.005341
v 0.703501 0.432397 1.005341
v 0.703501 0.387644 0.798560
v 0.703501 0.432397 0.798560
vt 0.625000 0.000000
vt 0.375000 0.250000
vt 0.375000 0.000000
vt 0.625000 0.250000
vt 0.375000 0.500000
vt 0.625000 0.500000
vt 0.375000 0.750000
vt 0.625000 0.750000
vt 0.375000 1.000000
vt 0.125000 0.750000
vt 0.125000 0.500000
vt 0.875000 0.500000
vt 0.625000 1.000000
vt 0.875000 0.750000
vn -0.5773 0.5773 0.5773
vn -0.5773 -0.5773 -0.5773
vn -0.5773 -0.5773 0.5773
vn -0.5773 0.5773 -0.5773
vn 0.5773 -0.5773 -0.5773
vn 0.5773 0.5773 -0.5773
vn 0.5773 -0.5773 0.5773
vn 0.5773 0.5773 0.5773
usemtl Material.001
s 1
f 82/93/81 83/94/82 81/95/83
f 84/96/84 87/97/85 83/94/82
f 88/98/86 85/99/87 87/97/85
f 86/100/88 81/101/83 85/99/87
f 87/97/85 81/102/83 83/103/82
f 84/104/84 86/100/88 88/98/86
f 82/93/81 84/96/84 83/94/82
f 84/96/84 88/98/86 87/97/85
f 88/98/86 86/100/88 85/99/87
f 86/100/88 82/105/81 81/101/83
f 87/97/85 85/99/87 81/102/83
f 84/104/84 82/106/81 86/100/88
