# Blender v2.92.0 OBJ File: 'boat.blend'
# www.blender.org
mtllib boat.mtl
o Circle
v 0.000280 0.000000 -2.144487
v -0.103051 0.000000 -2.148786
v -0.130873 0.000000 -1.644609
v -0.152977 0.000000 -0.890056
v -0.165587 0.000000 0.000000
v -0.152977 0.000000 0.890056
v -0.094745 0.000000 1.644609
v -0.040405 0.000000 1.894083
v 0.000067 0.000000 1.994557
v 0.040539 0.000000 1.894083
v 0.094879 0.000000 1.644610
v 0.153111 0.000000 0.890057
v 0.165721 0.000000 -0.000000
v 0.153111 0.000000 -0.890057
v 0.131007 0.000000 -1.644610
v 0.103185 0.000000 -2.148787
v 0.001286 0.494868 -1.804841
v -0.570718 0.494868 -1.808589
v -0.697996 0.494868 -1.445280
v -0.822067 0.494868 -0.778132
v -0.892072 0.494868 0.000211
v -0.824167 0.494868 0.755208
v -0.630790 0.494868 1.395263
v -0.340570 0.494868 1.824132
v -0.000000 0.494868 1.987905
v 0.340570 0.494868 1.824133
v 0.630790 0.494868 1.395263
v 0.824167 0.494868 0.755208
v 0.892072 0.494868 0.000211
v 0.822067 0.494868 -0.778133
v 0.697996 0.494868 -1.445280
v 0.570718 0.494868 -1.808588
v -0.622493 0.494868 -2.148786
v 0.001285 0.494868 -2.144487
v -0.790446 0.494868 -1.644609
v -0.923880 0.494868 -0.890056
v -1.000000 0.494868 0.000000
v -0.923880 0.494868 0.890056
v -0.707107 0.494868 1.644609
v -0.382683 0.494868 2.148786
v -0.000000 0.494868 2.342315
v 0.382683 0.494868 2.148786
v 0.707107 0.494868 1.644610
v 0.923880 0.494868 0.890057
v 1.000000 0.494868 -0.000000
v 0.923879 0.494868 -0.890057
v 0.790445 0.494868 -1.644610
v 0.622493 0.494868 -2.148787
v -0.233305 0.188455 -1.715918
v 0.000573 0.188455 -1.712361
v -0.285346 0.188455 -1.371180
v -0.336076 0.188455 -0.738136
v -0.364699 0.188455 0.000420
v -0.336934 0.188455 0.716822
v -0.257867 0.188455 1.324159
v -0.139203 0.188455 1.731105
v 0.000047 0.188455 1.886506
v 0.139298 0.188455 1.731106
v 0.257962 0.188455 1.324160
v 0.337029 0.188455 0.716822
v 0.364794 0.188455 0.000420
v 0.336171 0.188455 -0.738136
v 0.285441 0.188455 -1.371180
v 0.233400 0.188455 -1.715917
vt 0.000000 0.000000
vt 0.000000 0.000000
vt 0.000000 0.000000
vt 0.000000 0.000000
vt 0.000000 0.000000
vt 0.000000 0.000000
vt 0.000000 0.000000
vt 0.000000 0.000000
vt 0.000000 0.000000
vt 0.000000 0.000000
vt 0.000000 0.000000
vt 0.000000 0.000000
vt 0.000000 0.000000
vt 0.000000 0.000000
vt 0.000000 0.000000
vt 0.000000 0.000000
vt 0.000000 0.000000
vt 0.000000 0.000000
vt 0.000000 0.000000
vt 0.000000 0.000000
vt 0.000000 0.000000
vt 0.000000 0.000000
vt 0.000000 0.000000
vt 0.000000 0.000000
vt 0.000000 0.000000
vt 0.000000 0.000000
vt 0.000000 0.000000
vt 0.000000 0.000000
vt 0.000000 0.000000
vt 0.000000 0.000000
vt 0.000000 0.000000
vt 0.000000 0.000000
vt 0.000000 0.000000
vt 0.000000 0.000000
vt 0.000000 0.000000
vt 0.000000 0.000000
vt 0.000000 0.000000
vt 0.000000 0.000000
vt 0.000000 0.000000
vt 0.000000 0.000000
vt 0.000000 0.000000
vt 0.000000 0.000000
vt 0.000000 0.000000
vt 0.000000 0.000000
vt 0.000000 0.000000
vt 0.000000 0.000000
vt 0.000000 0.000000
vt 0.000000 0.000000
vt 0.000000 0.000000
vt 0.000000 0.000000
vt 0.000000 0.000000
vt 0.000000 0.000000
vt 0.000000 0.000000
vt 0.000000 0.000000
vt 0.000000 0.000000
vt 0.000000 0.000000
vt 0.000000 0.000000
vt 0.000000 0.000000
vt 0.000000 0.000000
vt 0.000000 0.000000
vt 0.000000 0.000000
vt 0.000000 0.000000
vt 0.000000 0.000000
vt 0.000000 0.000000
vn 0.0000 -1.0000 0.0000
vn -0.6047 0.7816 0.1531
vn 0.5787 -0.8087 0.1055
vn -0.5246 -0.8509 -0.0262
vn 0.5247 -0.8509 0.0262
vn -0.5246 -0.8509 0.0262
vn 0.5247 -0.8509 -0.0262
vn -0.5787 -0.8087 0.1054
vn 0.5681 -0.8209 -0.0585
vn -0.6390 -0.6990 0.3211
vn 0.6381 -0.7599 -0.1239
vn -0.4680 -0.5720 0.6737
vn 0.0118 0.0062 -0.9999
vn -0.0119 0.0062 -0.9999
vn 0.4681 -0.5719 0.6737
vn -0.6380 -0.7600 -0.1239
vn 0.6391 -0.6989 0.3212
vn -0.5680 -0.8209 -0.0585
vn 0.0000 1.0000 0.0000
vn 0.5058 0.4075 -0.7604
vn -0.0087 0.2848 0.9585
vn 0.0087 0.2848 0.9586
vn -0.5058 0.4073 -0.7604
vn 0.6046 0.7817 0.1531
vn -0.6483 0.6922 -0.3171
vn 0.5553 0.8283 0.0747
vn -0.5654 0.8155 -0.1235
vn 0.5162 0.8558 0.0336
vn -0.5159 0.8560 -0.0335
vn 0.5158 0.8561 -0.0335
vn -0.5163 0.8558 0.0336
vn 0.5653 0.8156 -0.1235
vn -0.5554 0.8282 0.0747
vn 0.6482 0.6923 -0.3171
vn 0.0000 0.2905 -0.9569
usemtl Material.001
s off
f 2/1/1 1/2/1 16/3/1 15/4/1 14/5/1 13/6/1 12/7/1 11/8/1 10/9/1 9/10/1 8/11/1 7/12/1 6/13/1 5/14/1 4/15/1 3/16/1
f 31/17/2 32/18/2 64/19/2 63/20/2
f 11/8/3 12/7/3 44/21/3 43/22/3
f 4/15/4 5/14/4 37/23/4 36/24/4
f 12/7/5 13/6/5 45/25/5 44/21/5
f 5/14/6 6/13/6 38/26/6 37/23/6
f 13/6/7 14/5/7 46/27/7 45/25/7
f 6/13/8 7/12/8 39/28/8 38/26/8
f 14/5/9 15/4/9 47/29/9 46/27/9
f 7/12/10 8/11/10 40/30/10 39/28/10
f 15/4/11 16/3/11 48/31/11 47/29/11
f 8/11/12 9/10/12 41/32/12 40/30/12
f 1/2/13 2/1/13 33/33/13 34/34/13
f 16/3/14 1/2/14 34/34/14 48/31/14
f 9/10/15 10/9/15 42/35/15 41/32/15
f 2/1/16 3/16/16 35/36/16 33/33/16
f 10/9/17 11/8/17 43/22/17 42/35/17
f 3/16/18 4/15/18 36/24/18 35/36/18
f 18/37/19 17/38/19 34/34/19 33/33/19
f 19/39/19 18/37/19 33/33/19 35/36/19
f 20/40/19 19/39/19 35/36/19 36/24/19
f 21/41/19 20/40/19 36/24/19 37/23/19
f 22/42/19 21/41/19 37/23/19 38/26/19
f 23/43/19 22/42/19 38/26/19 39/28/19
f 24/44/19 23/43/19 39/28/19 40/30/19
f 25/45/19 24/44/19 40/30/19 41/32/19
f 26/46/19 25/45/19 41/32/19 42/35/19
f 27/47/19 26/46/19 42/35/19 43/22/19
f 28/48/19 27/47/19 43/22/19 44/21/19
f 29/49/19 28/48/19 44/21/19 45/25/19
f 30/50/19 29/49/19 45/25/19 46/27/19
f 31/17/19 30/50/19 46/27/19 47/29/19
f 32/18/19 31/17/19 47/29/19 48/31/19
f 17/38/19 32/18/19 48/31/19 34/34/19
f 49/51/19 51/52/19 52/53/19 53/54/19 54/55/19 55/56/19 56/57/19 57/58/19 58/59/19 59/60/19 60/61/19 61/62/19 62/63/19 63/20/19 64/19/19 50/64/19
f 24/44/20 25/45/20 57/58/20 56/57/20
f 17/38/21 18/37/21 49/51/21 50/64/21
f 32/18/22 17/38/22 50/64/22 64/19/22
f 25/45/23 26/46/23 58/59/23 57/58/23
f 18/37/24 19/39/24 51/52/24 49/51/24
f 26/46/25 27/47/25 59/60/25 58/59/25
f 19/39/26 20/40/26 52/53/26 51/52/26
f 27/47/27 28/48/27 60/61/27 59/60/27
f 20/40/28 21/41/28 53/54/28 52/53/28
f 28/48/29 29/49/29 61/62/29 60/61/29
f 21/41/30 22/42/30 54/55/30 53/54/30
f 29/49/31 30/50/31 62/63/31 61/62/31
f 22/42/32 23/43/32 55/56/32 54/55/32
f 30/50/33 31/17/33 63/20/33 62/63/33
f 23/43/34 24/44/34 56/57/34 55/56/34
f 24/44/35 26/46/35 58/59/35 56/57/35
f 25/45/1 24/44/1 26/46/1
o Cube_Cube.001
v -0.794455 0.387644 0.103391
v -0.794455 0.432397 0.103391
v -0.794455 0.387644 -0.103391
v -0.794455 0.432397 -0.103391
v 0.794455 0.387644 0.103391
v 0.794455 0.432397 0.103391
v 0.794455 0.387644 -0.103391
v 0.794455 0.432397 -0.103391
vt 0.375000 0.000000
vt 0.625000 0.000000
vt 0.625000 0.250000
vt 0.375000 0.250000
vt 0.625000 0.500000
vt 0.375000 0.500000
vt 0.625000 0.750000
vt 0.375000 0.750000
vt 0.625000 1.000000
vt 0.375000 1.000000
vt 0.125000 0.500000
vt 0.125000 0.750000
vt 0.875000 0.500000
vt 0.875000 0.750000
vn -1.0000 0.0000 0.0000
vn 0.0000 0.0000 -1.0000
vn 1.0000 0.0000 0.0000
vn 0.0000 0.0000 1.0000
vn 0.0000 -1.0000 0.0000
vn 0.0000 1.0000 0.0000
usemtl Material.001
s off
f 65/65/36 66/66/36 68/67/36 67/68/36
f 67/68/37 68/67/37 72/69/37 71/70/37
f 71/70/38 72/69/38 70/71/38 69/72/38
f 69/72/39 70/71/39 66/73/39 65/74/39
f 67/75/40 71/70/40 69/72/40 65/76/40
f 72/69/41 68/77/41 66/78/41 70/71/41
o Cube.001_Cube.002
v -0.724041 0.387644 -0.868925
v -0.724041 0.432397 -0.868925
v -0.724041 0.387644 -1.075706
v -0.724041 0.432397 -1.075706
v 0.724041 0.387644 -0.868925
v 0.724041 0.432397 -0.868925
v 0.724041 0.387644 -1.075706
v 0.724041 0.432397 -1.075706
vt 0.375000 0.000000
vt 0.625000 0.000000
vt 0.625000 0.250000
vt 0.375000 0.250000
vt 0.625000 0.500000
vt 0.375000 0.500000
vt 0.625000 0.750000
vt 0.375000 0.750000
vt 0.625000 1.000000
vt 0.375000 1.000000
vt 0.125000 0.500000
vt 0.125000 0.750000
vt 0.875000 0.500000
vt 0.875000 0.750000
vn -1.0000 0.0000 0.0000
vn 0.0000 0.0000 -1.0000
vn 1.0000 0.0000 0.0000
vn 0.0000 0.0000 1.0000
vn 0.0000 -1.0000 0.0000
vn 0.0000 1.0000 0.0000
usemtl Material.001
s off
f 73/79/42 74/80/42 76/81/42 75/82/42
f 75/82/43 76/81/43 80/83/43 79/84/43
f 79/84/44 80/83/44 78/85/44 77/86/44
f 77/86/45 78/85/45 74/87/45 73/88/45
f 75/89/46 79/84/46 77/86/46 73/90/46
f 80/83/47 76/91/47 74/92/47 78/85/47
o Cube.002_Cube.003
v -0.703501 0.387644 1.005341
v -0.703501 0.432397 1.005341
v -0.703501 0.387644 0.798560
v -0.703501 0.432397 0.798560
v 0.703501 0.387644 1.005341
v 0.703501 0.432397 1.005341
v 0.703501 0.387644 0.798560
v 0.703501 0.432397 0.798560
vt 0.375000 0.000000
vt 0.625000 0.000000
vt 0.625000 0.250000
vt 0.375000 0.250000
vt 0.625000 0.500000
vt 0.375000 0.500000
vt 0.625000 0.750000
vt 0.375000 0.750000
vt 0.625000 1.000000
vt 0.375000 1.000000
vt 0.125000 0.500000
vt 0.125000 0.750000
vt 0.875000 0.500000
vt 0.875000 0.750000
vn -1.0000 0.0000 0.0000
vn 0.0000 0.0000 -1.0000
vn 1.0000 0.0000 0.0000
vn 0.0000 0.0000 1.0000
vn 0.0000 -1.0000 0.0000
vn 0.0000 1.0000 0.0000
usemtl Material.001
s off
f 81/93/48 82/94/48 84/95/48 83/96/48
f 83/96/49 84/95/49 88/97/49 87/98/49
f 87/98/50 88/97/50 86/99/50 85/100/50
f 85/100/51 86/99/51 82/101/51 81/102/51
f 83/103/52 87/98/52 85/100/52 81/104/52
f 88/97/53 84/105/53 82/106/53 86/99/53
o Plane_Plane.001
v -11.074346 0.000000 11.074346
v 11.074346 0.000000 11.074346
v -11.074346 0.000000 -11.074346
v 11.074346 0.000000 -11.074346
vt 0.000000 0.000000
vt 1.000000 0.000000
vt 1.000000 1.000000
vt 0.000000 1.000000
vn 0.0000 1.0000 0.0000
usemtl Material.003
s off
f 89/107/54 90/108/54 92/109/54 91/110/54
